<svg width="20" height="20" viewBox="0 0 100 100" fill="none" xmlns="http://www.w3.org/2000/svg">
  <!-- Main snowflake structure with rounded ends -->
  <g stroke="#616161" stroke-width="6 " stroke-linecap="round">
    <!-- Main vertical line -->
    <line x1="50" y1="10" x2="50" y2="90" />
    <!-- Main horizontal line -->
    <line x1="10" y1="50" x2="90" y2="50" />
    <!-- Diagonal line 1 -->
    <line x1="18" y1="18" x2="82" y2="82" />
    <!-- Diagonal line 2 -->
    <line x1="82" y1="18" x2="18" y2="82" />
    
    <!-- Small branches off the main lines -->
    <!-- Vertical line branches -->
    <line x1="50" y1="25" x2="55" y2="35" />
    <line x1="50" y1="25" x2="45" y2="35" />
    
    <line x1="50" y1="75" x2="55" y2="65" />
    <line x1="50" y1="75" x2="45" y2="65" />
    
    <!-- Horizontal line branches -->
    <line x1="25" y1="50" x2="35" y2="45" />
    <line x1="25" y1="50" x2="35" y2="55" />
    
    <line x1="75" y1="50" x2="65" y2="45" />
    <line x1="75" y1="50" x2="65" y2="55" />
    
    <!-- Diagonal line 1 branches -->
    <line x1="28" y1="28" x2="35" y2="35" />
    <line x1="28" y1="28" x2="30" y2="35" />
    <line x1="28" y1="28" x2="35" y2="35" />
    <line x1="28" y1="28" x2="35" y2="30" />
    
    <line x1="72" y1="72" x2="65" y2="65" />
    <line x1="72" y1="72" x2="65" y2="70" />
    <line x1="72" y1="72" x2="65" y2="65" />
    <line x1="72" y1="72" x2="70" y2="65" />
    
    <!-- Diagonal line 2 branches -->
    <line x1="72" y1="28" x2="65" y2="35" />
    <line x1="72" y1="28" x2="65" y2="30" />
    <line x1="72" y1="28" x2="70" y2="30" />
    <line x1="72" y1="28" x2="70" y2="35" />

    
    <line x1="28" y1="72" x2="35" y2="65" />
    <line x1="28" y1="72" x2="35" y2="70" />
    <line x1="28" y1="72" x2="30" y2="70" />
    <line x1="28" y1="72" x2="30" y2="65" />

  </g>
  
  <!-- Circles at the ends of the main arms -->
  <circle cx="50" cy="10" r="6" fill="#616161" />
  <circle cx="50" cy="90" r="6" fill="#616161" />
  <circle cx="10" cy="50" r="6" fill="#616161" />
  <circle cx="90" cy="50" r="6" fill="#616161" />
  <circle cx="82" cy="82" r="6" fill="#616161" />
  <circle cx="18" cy="18" r="6" fill="#616161" />
  <circle cx="82" cy="18" r="6" fill="#616161" />
  <circle cx="18" cy="82" r="6" fill="#616161" />
</svg>
